<?xml version="1.0" encoding="utf-8"?>
<!-- Generator: Adobe Illustrator 25.4.1, SVG Export Plug-In . SVG Version: 6.00 Build 0)  -->
<svg version="1.1" id="Layer_1" xmlns="http://www.w3.org/2000/svg" xmlns:xlink="http://www.w3.org/1999/xlink" x="0px" y="0px"
	 viewBox="0 0 2880 680" style="enable-background:new 0 0 2880 680;" xml:space="preserve">
<style type="text/css">
	.st0{fill:#0083F5;}
	.st1{opacity:0.6;}
	.st2{fill:none;}
	.st3{fill:#FFFFFF;}
</style>
<g>
	<g>
		<rect class="st0" width="2880" height="679.1"/>
	</g>
</g>
<g class="st1">
	<path class="st2" d="M2074.4,178.8c3.6,4.1,7.4,7.4,11.2,10.1c-0.7-3.4-1.1-9.4,4.1-13.5c4.6-3.6,8.6-3.5,12.7-1.3v-22.7h-51.5
		C2057.1,158.7,2067,170.4,2074.4,178.8z"/>
	<path class="st2" d="M2178.8,151.4H2129v46.2c1.8-0.3,3.5-0.9,4.9-1.9C2139.6,191.9,2166.9,166.8,2178.8,151.4z"/>
	<path class="st2" d="M1941.5,134.8c0,3.2,2.6,5.9,5.9,5.9c3.2,0,5.9-2.6,5.9-5.9c0-3.2-2.6-5.9-5.9-5.9
		C1944.2,128.9,1941.5,131.6,1941.5,134.8z"/>
	<path class="st2" d="M2274.4,272.6c0,3.2,2.6,5.9,5.9,5.9c3.2,0,5.9-2.6,5.9-5.9c0-3.2-2.6-5.9-5.9-5.9
		C2277.1,266.7,2274.4,269.3,2274.4,272.6z"/>
	<path class="st2" d="M2109.5,63.3c0,3.2,2.6,5.9,5.9,5.9s5.9-2.6,5.9-5.9c0-3.2-2.6-5.9-5.9-5.9S2109.5,60.1,2109.5,63.3z"/>
	<path class="st3" d="M1942.4,142.2h-8.7v53.6h-51.9v27.4h51.9v135.1h27.4V223.2h51.9v-27.4h-51.9v-53.6h-8.7c-1.4,1-3.2,1.5-5,1.5
		C1945.5,143.8,1943.8,143.2,1942.4,142.2z"/>
	<path class="st3" d="M1946.2,126c-4.4,0.6-7.7,4.3-7.7,8.8c0,3.1,1.6,5.8,3.9,7.4c1.4,1,3.2,1.5,5,1.5c1.9,0,3.6-0.6,5-1.5
		c2.4-1.6,3.9-4.3,3.9-7.4c0-4.5-3.4-8.2-7.7-8.8V0h-2.4V126z M1953.3,134.8c0,3.2-2.6,5.9-5.9,5.9c-3.2,0-5.9-2.6-5.9-5.9
		c0-3.2,2.6-5.9,5.9-5.9C1950.6,128.9,1953.3,131.6,1953.3,134.8z"/>
	<path class="st3" d="M2275.3,280h-8.7v53.6h-51.9v27.4h51.9V496h27.4V360.9h51.9v-27.4H2294V280h-8.7c-1.4,1-3.2,1.5-5,1.5
		C2278.5,281.5,2276.7,280.9,2275.3,280z"/>
	<path class="st3" d="M2279.1,0v263.7c-4.4,0.6-7.7,4.3-7.7,8.8c0,3.1,1.6,5.8,3.9,7.4c1.4,1,3.2,1.5,5,1.5c1.9,0,3.6-0.6,5-1.5
		c2.4-1.6,3.9-4.3,3.9-7.4c0-4.5-3.4-8.2-7.7-8.8V0H2279.1z M2286.2,272.6c0,3.2-2.6,5.9-5.9,5.9c-3.2,0-5.9-2.6-5.9-5.9
		c0-3.2,2.6-5.9,5.9-5.9C2283.6,266.7,2286.2,269.3,2286.2,272.6z"/>
	<path class="st3" d="M2110,70.5h-7.6v55.5h-89.6v25.5h24.2c2.7,3.9,6.6,9.3,11.2,15.2c8.6,11.1,24.5,33.4,38.5,42.7
		c3.3,7.5,8,19,8.9,25.5c1,7.5,1.6,19.3,0.5,29.3c-2.1,2.1-0.6,4.2-2.3,6.9c-0.7,1.1-0.4,2.3,0.2,3.3c-3.4,10.4-8.6,20.6-2.3,42.6
		c3.5,12.1,7.6,22.6,10.7,29.7V436h26.6v-21.4l1.8,0.1c0,0-0.8-3.7-1.8-9.3V304.2c1.3-3.2,2.5-6.2,3.2-8c3.2-8.7,4.6-14.8,5.2-20.1
		c1-0.4,2-1,2.9-1.6c1.1,1.6,2.1,3.3,1.2,7c-1.3,5.2-2.5,12.1-1.7,15.5c0.8,3.4,1.5,7.6,1.5,7.6s1.4-2.4,5.3-2.7
		c3.9-0.3,4.6-3,5.1-3.7c0.4-0.7-1.7-6.5-2.1-10.4c-0.4-3.9,0.6-8.7-1.7-12.4c-1.1-1.7-2.6-3.3-3.9-4.5c0.8-1.5,0.9-3.3,0.9-4.8
		c0-2.1,0.8-3.1-0.7-4.9c-1.5-1.8-1-4.2-3.9-3.7c-0.9,0.2-1.9,0.3-2.8,0.6c-0.1-6.9,0.1-15.4,2.2-28.8c1-6.5,3.9-18.3,5.7-25.7
		c6.3-4.3,12.1-9.2,15.8-14.4c8.4-12,22.8-30.1,29-38h28.2v-25.5H2129V70.5h-8.2c-1.5,1.1-3.4,1.8-5.4,1.8S2111.5,71.6,2110,70.5z
		 M2102.4,174.1c-4.1-2.2-8.1-2.3-12.7,1.3c-5.2,4.1-4.8,10.1-4.1,13.5c-3.8-2.6-7.6-5.9-11.2-10.1c-7.4-8.4-17.3-20.2-23.5-27.4
		h51.5V174.1z M2129,151.4h49.8c-11.8,15.4-39.1,40.5-44.8,44.3c-1.4,1-3.1,1.5-4.9,1.9V151.4z"/>
	<path class="st3" d="M2114.2,54.5c-4.4,0.6-7.7,4.3-7.7,8.8c0,2.9,1.4,5.5,3.6,7.1c1.5,1.1,3.4,1.8,5.4,1.8s3.9-0.7,5.4-1.8
		c2.2-1.6,3.6-4.2,3.6-7.1c0-4.5-3.4-8.2-7.7-8.8V0h-2.4V54.5z M2121.3,63.3c0,3.2-2.6,5.9-5.9,5.9s-5.9-2.6-5.9-5.9
		c0-3.2,2.6-5.9,5.9-5.9S2121.3,60.1,2121.3,63.3z"/>
</g>
</svg>
