<?xml version="1.0" encoding="utf-8"?>
<!-- Generator: Adobe Illustrator 25.4.1, SVG Export Plug-In . SVG Version: 6.00 Build 0)  -->
<svg version="1.1" id="Layer_1" xmlns="http://www.w3.org/2000/svg" xmlns:xlink="http://www.w3.org/1999/xlink" x="0px" y="0px"
	 viewBox="0 0 256 256" style="enable-background:new 0 0 256 256;" xml:space="preserve">
<style type="text/css">
	.st0{fill:#FFFFFF;}
</style>
<g id="Facebook_00000083049534064136885380000011489337232453543333_">
	<path class="st0" d="M194.8,42.3V0c-1.6,0-3.1,0-4.7,0c-3.7,0-7.5,0-11.2,0c-4.6,0-9.1,0-13.7,0c-4,0-8,0-12,0
		c-6.1,0.1-11.8,0.4-17.6,2.2c-5.6,1.8-10.9,5-15.3,8.8c-2.6,2.2-5,4.5-7.2,7.2c-0.9,1.1-1.7,2.2-2.5,3.4c-2.3,3.5-4.1,7.4-5.6,11.4
		c-0.3,0.9-0.7,1.8-1,2.8c-2.3,6.8-2.4,14.2-2.4,21.3c0,0.9,0,1.8,0,2.8c0,14.1,0,32.9,0,32.9H61.2v46.5h38.8h1V256h46.1V138.2
		l41.9,0.6l5.6-45.7L147.4,93V57.6c0,0-0.1-15.1,12.7-15.3L194.8,42.3z"/>
</g>
</svg>
