<?xml version="1.0" encoding="utf-8"?>
<!-- Generator: Adobe Illustrator 25.4.1, SVG Export Plug-In . SVG Version: 6.00 Build 0)  -->
<svg version="1.1" id="Layer_1" xmlns="http://www.w3.org/2000/svg" xmlns:xlink="http://www.w3.org/1999/xlink" x="0px" y="0px"
	 viewBox="0 0 256 256" style="enable-background:new 0 0 256 256;" xml:space="preserve">
<style type="text/css">
	.st0{fill:#0866FF;}
	.st1{fill:#FFFFFF;}
</style>
<g>
	<path class="st0" d="M256,128C256,57.3,198.7,0,128,0C57.3,0,0,57.3,0,128c0,60,41.3,110.4,97.1,124.2v-85.1H70.7V128h26.4v-16.9
		c0-43.6,19.7-63.8,62.5-63.8c8.1,0,22.1,1.6,27.8,3.2V86c-3-0.3-8.3-0.5-14.8-0.5c-21,0-29.1,8-29.1,28.6V128h41.8l-7.2,39.1h-34.6
		v87.9C206.9,247.4,256,193.4,256,128z"/>
	<path class="st1" d="M178.1,167.1l7.2-39.1h-41.8v-13.8c0-20.7,8.1-28.6,29.1-28.6c6.5,0,11.8,0.2,14.8,0.5V50.6
		c-5.7-1.6-19.7-3.2-27.8-3.2c-42.8,0-62.5,20.2-62.5,63.8V128H70.7v39.1h26.4v85.1c9.9,2.5,20.3,3.8,30.9,3.8
		c5.3,0,10.4-0.3,15.5-0.9v-87.9H178.1z"/>
</g>
</svg>
