<?xml version="1.0" encoding="utf-8"?>
<!-- Generator: Adobe Illustrator 25.4.1, SVG Export Plug-In . SVG Version: 6.00 Build 0)  -->
<svg version="1.1" id="Layer_1" xmlns="http://www.w3.org/2000/svg" xmlns:xlink="http://www.w3.org/1999/xlink" x="0px" y="0px"
	 viewBox="0 0 256 256" style="enable-background:new 0 0 256 256;" xml:space="preserve">
<style type="text/css">
	.st0{fill:#FF004F;}
	.st1{fill:#FFFFFF;}
	.st2{fill:#00F2EA;}
</style>
<g>
	<circle cx="128" cy="128" r="128"/>
	<g>
		<path class="st0" d="M160.6,106.6c9.9,7.1,22,11.3,35.1,11.3V92.7c-2.5,0-4.9-0.3-7.4-0.8v19.9c-13.1,0-25.2-4.2-35.1-11.3V152
			c0,25.8-20.8,46.6-46.5,46.6c-9.6,0-18.5-2.9-25.9-7.9c8.4,8.7,20.2,14,33.2,14c25.7,0,46.5-20.9,46.5-46.7L160.6,106.6
			L160.6,106.6z M169.7,81.2c-5-5.5-8.4-12.7-9.1-20.6v-3.2h-7C155.4,67.4,161.4,76,169.7,81.2z M97.2,171
			c-2.8-3.7-4.3-8.3-4.3-12.9c0-11.8,9.5-21.3,21.3-21.3c2.2,0,4.4,0.3,6.5,1v-25.8c-2.4-0.3-4.9-0.5-7.4-0.4v20.1
			c-2.1-0.7-4.3-1-6.5-1c-11.7,0-21.3,9.6-21.3,21.3C85.5,160.3,90.2,167.5,97.2,171z"/>
		<path class="st1" d="M153.3,100.5c9.9,7.1,22,11.3,35.1,11.3V91.9c-7.3-1.6-13.8-5.4-18.6-10.7c-8.3-5.2-14.3-13.8-16.1-23.8
			h-18.3v100.8c0,11.8-9.5,21.3-21.3,21.3c-6.9,0-13-3.3-16.9-8.4c-6.9-3.5-11.7-10.7-11.7-19.1c0-11.8,9.5-21.3,21.3-21.3
			c2.2,0,4.4,0.4,6.5,1v-20.1C88,112,67.7,132.7,67.7,158.1c0,12.7,5,24.2,13.2,32.6c7.4,5,16.3,7.9,25.9,7.9
			c25.7,0,46.5-20.9,46.5-46.7L153.3,100.5L153.3,100.5z"/>
		<path class="st2" d="M188.3,91.9v-5.4c-6.6,0-13-1.8-18.6-5.3C174.7,86.6,181.2,90.4,188.3,91.9z M153.7,57.3
			c-0.2-1-0.3-1.9-0.4-2.9v-3.2H128V152c0,11.8-9.5,21.3-21.3,21.3c-3.4,0-6.7-0.8-9.6-2.3c3.9,5.1,10,8.4,16.9,8.4
			c11.7,0,21.2-9.5,21.3-21.3V57.3H153.7z M113.2,111.5v-5.7c-2.1-0.3-4.2-0.4-6.4-0.4c-25.7,0-46.5,20.9-46.5,46.6
			c0,16.2,8.2,30.4,20.6,38.8c-8.2-8.4-13.2-19.9-13.2-32.6C67.7,132.7,88,112,113.2,111.5z"/>
	</g>
</g>
</svg>
