<svg xmlns="http://www.w3.org/2000/svg" viewBox="0 0 24 24" fill="#7360F2">
  <path d="M11.398.002C8.638-.025 3.767.716 1.598 5.593c-1.196 2.7-1.15 6.233-.33 9.123.49 1.755 1.738 3.38 3.29 4.396v3.196a.598.598 0 001.006.434l2.367-2.367a12.24 12.24 0 004.337.703c.261.008.52.012.774.012 2.506 0 6.007-.447 8.246-2.764 2.528-2.62 2.713-6.577 2.376-9.424C22.87 3.694 18.148.062 11.398.002zm5.876 14.967s-1.074 1.09-1.442 1.518c-.094.108-.213.19-.347.23a.73.73 0 01-.218.025 13.2 13.2 0 01-2.588-.88c-.986-.458-1.9-1.065-2.695-1.8a14.037 14.037 0 01-1.807-2.696 13.178 13.178 0 01-.878-2.594.726.726 0 01.25-.566c.428-.37 1.517-1.44 1.517-1.44a.659.659 0 01.916.01c.366.334.7.695 1 1.075.146.188.29.38.426.576.228.327.164.773-.152 1.02l-.703.518a.272.272 0 00-.09.312 7.97 7.97 0 001.06 1.76 7.97 7.97 0 001.76 1.06.272.272 0 00.312-.09l.518-.703c.247-.316.693-.38 1.02-.152.196.136.388.28.576.426.38.3.74.634 1.074 1 .254.29.24.73-.01.991zm-2.54-4.967a.4.4 0 01-.4-.368 2.276 2.276 0 00-2.124-2.124.4.4 0 01.064-.797 3.076 3.076 0 012.86 2.86.4.4 0 01-.4.43zm1.998.168a.4.4 0 01-.398-.375A4.266 4.266 0 0012.2 5.664a.4.4 0 11.05-.799 5.067 5.067 0 014.882 4.9.4.4 0 01-.4.405zm1.997.13a.4.4 0 01-.4-.384 6.257 6.257 0 00-6.063-6.063.4.4 0 11.033-.799 7.058 7.058 0 016.83 6.847.4.4 0 01-.4.4z"/>
</svg>
