<?xml version="1.0" encoding="utf-8"?>
<!-- Generator: Adobe Illustrator 25.4.1, SVG Export Plug-In . SVG Version: 6.00 Build 0)  -->
<svg version="1.1" id="Layer_1" xmlns="http://www.w3.org/2000/svg" xmlns:xlink="http://www.w3.org/1999/xlink" x="0px" y="0px"
	 viewBox="0 0 256 256" style="enable-background:new 0 0 256 256;" xml:space="preserve">
<style type="text/css">
	.st0{fill:#FFFFFF;}
</style>
<g>
	<path class="st0" d="M250.7,66c-1.5-5.4-4.3-10.4-8.3-14.4c-4-4-8.9-6.9-14.4-8.4c-20-5.4-100-5.4-100-5.4s-80,0-100,5.4
		c-5.4,1.5-10.4,4.4-14.4,8.4c-4,4-6.8,9-8.3,14.4C0,86.1,0,128,0,128s0,41.9,5.4,62c1.4,5.5,4.3,10.4,8.3,14.4
		c4,4,8.9,6.9,14.4,8.4c20,5.4,100,5.4,100,5.4s80,0,100-5.4c5.4-1.5,10.4-4.4,14.4-8.4c4-4,6.8-9,8.3-14.4c5.3-20.1,5.3-62,5.3-62
		S256,86.1,250.7,66z M101.8,166.1V89.9l66.9,38.1L101.8,166.1z"/>
</g>
</svg>
