<?xml version="1.0" encoding="utf-8"?>
<!-- Generator: Adobe Illustrator 25.4.1, SVG Export Plug-In . SVG Version: 6.00 Build 0)  -->
<svg version="1.1" id="Layer_1" xmlns="http://www.w3.org/2000/svg" xmlns:xlink="http://www.w3.org/1999/xlink" x="0px" y="0px"
	 viewBox="0 0 256 256" style="enable-background:new 0 0 256 256;" xml:space="preserve">
<style type="text/css">
	.st0{fill-rule:evenodd;clip-rule:evenodd;fill:#FF0302;}
	.st1{fill:#FFFFFF;}
</style>
<g>
	<circle class="st0" cx="128" cy="128" r="127.2"/>
	<g>
		<path class="st1" d="M201.1,91c-0.9-3.2-2.6-6.2-4.9-8.6c-2.4-2.4-5.3-4.1-8.6-5c-11.9-3.2-59.6-3.2-59.6-3.2s-47.7,0-59.6,3.2
			c-3.2,0.9-6.2,2.6-8.6,5c-2.4,2.4-4.1,5.3-4.9,8.6c-3.2,12-3.2,37-3.2,37s0,25,3.2,37c0.9,3.3,2.6,6.2,4.9,8.6
			c2.4,2.4,5.3,4.1,8.6,5c11.9,3.2,59.6,3.2,59.6,3.2s47.7,0,59.6-3.2c3.2-0.9,6.2-2.6,8.6-5c2.4-2.4,4.1-5.3,4.9-8.6
			c3.2-12,3.2-37,3.2-37S204.3,103,201.1,91z M112.4,150.7v-45.4l39.9,22.7L112.4,150.7z"/>
	</g>
</g>
</svg>
